<?xml version="1.0" standalone="no"?>
<!DOCTYPE svg PUBLIC "-//W3C//DTD SVG 20010904//EN"
 "http://www.w3.org/TR/2001/REC-SVG-20010904/DTD/svg10.dtd">
<svg version="1.0" xmlns="http://www.w3.org/2000/svg"
 width="1200.000000pt" height="1200.000000pt" viewBox="0 0 1200.000000 1200.000000"
 preserveAspectRatio="xMidYMid meet">

<g transform="translate(0.000000,1200.000000) scale(0.100000,-0.100000)"
fill="#000000" stroke="none">
<path d="M1759 6864 c-19 -23 1 -48 39 -52 l32 -3 2 -822 3 -822 330 0 330 0
5 322 c5 305 6 323 26 349 38 51 71 69 129 69 61 0 98 -21 130 -76 19 -32 20
-57 25 -349 l5 -315 319 -3 c227 -2 323 1 332 9 12 10 14 148 14 825 l0 813
26 3 c31 3 50 28 41 52 -6 14 -40 16 -332 16 -292 0 -326 -2 -332 -16 -9 -24
10 -49 41 -52 l26 -3 0 -143 c0 -79 3 -231 7 -339 l6 -197 -306 0 -307 0 0
340 0 340 23 0 c33 0 49 15 45 41 l-3 24 -321 3 c-284 2 -323 0 -335 -14z
m521 -844 l0 -790 -190 0 -190 0 0 790 0 790 190 0 190 0 0 -790z m1130 0 l0
-790 -190 0 -190 0 0 790 0 790 190 0 190 0 0 -790z m-450 -375 l0 -415 -39 0
-40 0 -3 293 c-3 277 -4 294 -25 332 -54 102 -156 145 -268 114 -53 -15 -129
-91 -144 -144 -7 -25 -11 -145 -11 -317 l0 -278 -40 0 -40 0 0 415 0 415 305
0 305 0 0 -415z"/>
<path d="M1987 6723 c-4 -3 -7 -50 -7 -104 0 -79 3 -98 16 -103 29 -11 179 -7
192 6 7 7 12 44 12 98 0 54 -5 91 -12 98 -13 13 -189 17 -201 5z m143 -103 l0
-40 -40 0 -40 0 0 40 0 40 40 0 40 0 0 -40z"/>
<path d="M1993 6423 c-9 -3 -13 -34 -13 -103 0 -80 3 -99 16 -104 29 -11 179
-7 192 6 7 7 12 44 12 98 0 54 -5 91 -12 98 -12 12 -169 16 -195 5z m137 -103
l0 -40 -40 0 -40 0 0 40 0 40 40 0 40 0 0 -40z"/>
<path d="M1991 6116 c-8 -9 -11 -47 -9 -107 l3 -94 94 -3 c60 -2 98 1 107 9
18 15 20 179 2 197 -18 18 -182 16 -197 -2z m139 -96 l0 -40 -40 0 -40 0 0 40
0 40 40 0 40 0 0 -40z"/>
<path d="M1991 5816 c-8 -9 -11 -47 -9 -107 l3 -94 105 0 105 0 3 94 c2 60 -1
98 -9 107 -8 10 -36 14 -99 14 -63 0 -91 -4 -99 -14z m139 -96 l0 -40 -40 0
-40 0 0 40 0 40 40 0 40 0 0 -40z"/>
<path d="M1991 5516 c-8 -9 -11 -47 -9 -107 l3 -94 105 0 105 0 3 94 c2 60 -1
98 -9 107 -8 10 -36 14 -99 14 -63 0 -91 -4 -99 -14z m139 -96 l0 -40 -40 0
-40 0 0 40 0 40 40 0 40 0 0 -40z"/>
<path d="M3111 6708 c-11 -31 -1 -181 13 -190 6 -4 48 -8 93 -8 107 0 113 6
113 114 0 50 -5 87 -12 94 -8 8 -46 12 -105 12 -88 0 -94 -1 -102 -22z m147
-85 c-3 -36 -5 -38 -40 -41 l-38 -3 0 40 0 41 41 0 40 0 -3 -37z"/>
<path d="M3117 6423 c-4 -3 -7 -50 -7 -104 0 -79 3 -98 16 -103 29 -11 179 -7
192 6 16 16 16 180 0 196 -13 13 -189 17 -201 5z m141 -100 c-3 -36 -5 -38
-40 -41 l-38 -3 0 40 0 41 41 0 40 0 -3 -37z"/>
<path d="M3114 6117 c-3 -8 -3 -56 -2 -108 l3 -94 94 -3 c60 -2 98 1 107 9 18
15 20 179 2 197 -18 18 -197 16 -204 -1z m146 -97 l0 -40 -40 0 -40 0 0 40 0
40 40 0 40 0 0 -40z"/>
<path d="M3114 5817 c-3 -8 -3 -56 -2 -108 l3 -94 94 -3 c60 -2 98 1 107 9 18
15 20 179 2 197 -18 18 -197 16 -204 -1z m146 -97 l0 -40 -40 0 -40 0 0 40 0
40 40 0 40 0 0 -40z"/>
<path d="M3122 5522 c-9 -6 -12 -35 -10 -108 l3 -99 94 -3 c60 -2 98 1 107 9
18 15 20 179 2 197 -14 14 -175 17 -196 4z m138 -102 l0 -40 -40 0 -40 0 0 40
0 40 40 0 40 0 0 -40z"/>
<path d="M9455 6835 c-16 -8 -45 -14 -62 -15 -23 0 -33 -5 -33 -15 0 -10 11
-15 35 -15 l35 0 0 -299 c0 -165 -3 -307 -6 -316 -4 -9 -17 -21 -30 -26 -50
-19 -23 -29 76 -29 93 0 100 1 100 20 0 16 -7 20 -30 20 l-30 0 0 345 c0 373
3 356 -55 330z"/>
<path d="M3860 6770 c0 -16 7 -20 35 -20 l35 0 0 -276 c0 -175 -4 -283 -11
-295 -5 -11 -21 -24 -35 -29 -51 -20 -23 -30 81 -30 87 0 105 3 105 15 0 11
-11 15 -36 15 -29 0 -35 3 -30 16 3 9 6 74 6 145 l0 129 175 0 175 0 0 -121
c0 -128 -7 -155 -46 -169 -51 -20 -23 -30 81 -30 87 0 105 3 105 15 0 10 -10
15 -32 15 l-33 0 3 277 c1 153 4 288 7 300 3 14 16 25 30 29 14 3 25 12 25 20
0 11 -22 14 -105 14 -98 0 -105 -1 -105 -20 0 -16 7 -20 35 -20 l35 0 0 -135
0 -135 -175 0 -175 0 0 123 c0 107 2 126 18 140 10 10 24 17 30 17 7 0 12 7
12 15 0 12 -18 15 -105 15 -98 0 -105 -1 -105 -20z"/>
<path d="M7200 6771 c0 -17 5 -19 35 -14 l35 6 0 -250 c0 -313 -3 -342 -42
-357 -15 -6 -28 -16 -28 -23 0 -10 26 -13 105 -13 98 0 105 1 105 20 0 16 -7
20 -35 20 l-35 0 0 139 0 138 170 7 c93 4 175 4 181 0 13 -7 7 -234 -6 -267
-4 -9 -18 -20 -31 -23 -13 -3 -24 -12 -24 -20 0 -11 22 -14 105 -14 98 0 105
1 105 20 0 16 -7 20 -36 20 l-35 0 3 283 c3 299 6 317 49 317 11 0 19 7 19 15
0 12 -18 15 -105 15 -94 0 -105 -2 -105 -18 0 -14 6 -17 33 -14 l32 4 0 -139
-1 -138 -174 0 -175 0 0 121 c0 127 8 154 46 154 11 0 19 7 19 15 0 12 -18 15
-105 15 -97 0 -105 -1 -105 -19z"/>
<path d="M8575 6700 c-20 -44 -76 -100 -100 -100 -8 0 -15 -9 -15 -20 0 -17 7
-20 40 -20 l40 0 0 -175 c0 -192 8 -230 54 -260 20 -13 40 -16 81 -13 46 4 62
10 90 38 19 19 35 40 35 47 0 18 -7 16 -44 -12 -18 -14 -46 -25 -62 -25 -66 1
-74 25 -74 234 l0 176 80 0 c64 0 80 3 80 15 0 12 -16 15 -80 15 l-79 0 -3 67
c-2 36 -8 68 -14 70 -6 2 -19 -15 -29 -37z"/>
<path d="M9045 6611 c-185 -45 -250 -309 -108 -443 86 -82 242 -76 327 11 47
48 31 64 -21 22 -47 -37 -110 -56 -157 -47 -73 14 -119 80 -132 191 l-7 55 80
0 c44 0 121 3 171 6 91 7 92 7 92 33 -1 40 -34 104 -69 134 -49 41 -109 54
-176 38z m106 -41 c22 -12 44 -51 54 -97 l7 -33 -126 0 c-140 0 -139 0 -112
65 26 61 120 95 177 65z"/>
<path d="M4706 6594 c-22 -8 -48 -22 -59 -32 -40 -36 -43 -96 -5 -107 28 -9
49 13 46 49 -1 18 1 37 5 43 12 19 76 35 111 29 52 -10 68 -36 74 -119 l4 -74
-65 -6 c-135 -13 -227 -78 -227 -161 0 -53 26 -90 76 -106 54 -18 119 -7 169
28 l43 30 6 -24 c6 -22 11 -24 71 -24 51 0 65 3 65 15 0 10 -10 15 -32 15
l-33 0 0 178 c0 198 -5 220 -64 259 -40 27 -122 30 -185 7z m174 -313 c0 -68
-1 -71 -36 -97 -49 -38 -127 -40 -155 -5 -57 70 34 169 159 171 l32 0 0 -69z"/>
<path d="M5284 6585 c-27 -14 -50 -25 -50 -25 -1 0 -4 10 -7 21 -5 17 -11 20
-29 15 -13 -4 -42 -10 -65 -13 -34 -4 -43 -10 -43 -25 0 -17 5 -19 30 -16 l30
5 0 -187 c0 -168 -2 -189 -18 -203 -10 -10 -24 -17 -30 -17 -7 0 -12 -4 -12
-10 0 -6 40 -10 100 -10 82 0 100 3 100 15 0 10 -10 15 -30 15 l-30 0 2 187 3
187 33 19 c47 27 106 26 137 -3 35 -33 45 -78 45 -206 0 -141 -6 -173 -36
-186 -44 -20 -24 -28 71 -28 78 0 95 3 95 15 0 10 -10 15 -27 15 l-28 0 1 187
2 188 28 17 c16 10 48 18 72 18 96 0 112 -33 112 -239 0 -123 -3 -152 -16
-165 -8 -9 -20 -16 -25 -16 -5 0 -9 -4 -9 -10 0 -6 38 -10 95 -10 78 0 95 3
95 15 0 10 -10 15 -29 15 l-29 0 -4 183 c-3 156 -6 187 -21 210 -47 72 -136
86 -233 37 -58 -29 -59 -29 -79 -10 -49 46 -128 52 -201 15z"/>
<path d="M6040 6595 c-14 -8 -40 -14 -57 -15 -23 0 -33 -5 -33 -15 0 -10 11
-15 35 -15 l35 0 -1 -147 c-1 -191 -7 -235 -36 -248 -13 -5 -23 -15 -23 -22 0
-10 25 -13 95 -13 85 0 95 2 95 18 0 15 -6 18 -30 14 l-30 -4 0 154 c0 149 1
155 26 192 15 22 43 46 67 56 l41 19 18 -30 c33 -53 93 -21 72 38 -8 23 -16
29 -48 31 -57 5 -77 -3 -129 -49 l-47 -41 0 46 c0 50 -8 55 -50 31z"/>
<path d="M6502 6589 c-143 -71 -179 -299 -66 -413 87 -87 240 -90 328 -8 35
33 73 112 82 170 14 93 -35 194 -118 242 -68 38 -159 42 -226 9z m182 -39 c46
-41 66 -103 66 -204 0 -93 -21 -149 -66 -185 -24 -19 -38 -22 -78 -18 -41 4
-55 11 -82 40 -90 98 -81 321 14 380 45 28 106 22 146 -13z"/>
<path d="M8052 6589 c-143 -71 -179 -299 -66 -413 87 -87 240 -90 328 -8 35
33 73 112 82 170 14 93 -35 194 -118 242 -68 38 -159 42 -226 9z m182 -39 c46
-41 66 -103 66 -204 0 -93 -21 -149 -66 -185 -24 -19 -38 -22 -78 -18 -41 4
-55 11 -82 40 -90 98 -81 321 14 380 45 28 106 22 146 -13z"/>
<path d="M8101 5642 c-51 -3 -53 -4 -30 -15 l24 -13 5 -251 5 -252 24 18 c23
18 25 18 58 -2 25 -14 45 -18 73 -14 90 12 135 84 128 206 -4 81 -24 116 -79
143 -42 21 -95 11 -125 -24 l-19 -22 29 22 c37 29 71 28 101 -2 29 -30 38 -74
33 -170 -5 -116 -54 -165 -130 -133 l-38 16 0 247 c0 136 -1 247 -2 248 -2 1
-28 0 -57 -2z"/>
<path d="M5260 5615 c-26 -32 13 -81 48 -59 34 22 22 74 -18 74 -10 0 -23 -7
-30 -15z"/>
<path d="M8991 5589 c15 -6 30 -20 33 -32 3 -12 6 -101 6 -197 0 -96 -3 -185
-6 -197 -3 -12 -18 -26 -33 -32 -36 -13 191 -14 240 -1 19 5 48 24 65 41 39
41 42 114 4 154 -24 26 -120 61 -143 52 -13 -5 -1 -11 45 -21 78 -17 88 -170
13 -204 -52 -24 -92 -25 -114 -3 -21 21 -21 29 -19 222 3 224 3 223 73 215 54
-6 75 -34 75 -101 0 -38 -6 -60 -21 -79 -23 -30 -20 -32 21 -11 41 21 60 53
60 100 0 46 -23 75 -73 94 -16 6 -79 11 -140 10 -85 0 -106 -3 -86 -10z"/>
<path d="M3910 5577 l25 -13 0 -214 0 -214 -25 -7 c-14 -4 18 -7 70 -7 52 1
84 3 70 5 -44 8 -50 21 -50 104 l0 79 53 0 c135 0 219 117 157 218 -31 50 -71
62 -207 62 -102 0 -115 -2 -93 -13z m225 -21 c45 -45 42 -169 -5 -211 -13 -11
-41 -20 -75 -23 l-55 -4 0 124 c0 69 3 128 7 131 3 4 28 7 55 7 38 0 54 -5 73
-24z"/>
<path d="M6603 5572 c-20 -3 -23 -9 -23 -52 l0 -49 -37 -4 -38 -4 38 -1 37 -2
0 -140 c0 -178 13 -210 87 -210 29 0 83 50 82 77 0 12 -6 7 -17 -15 -19 -39
-56 -52 -80 -28 -14 14 -17 40 -17 164 l0 147 50 6 50 6 -52 1 -52 2 -3 53
c-3 48 -5 52 -25 49z"/>
<path d="M7358 5572 c-26 -3 -28 -6 -28 -52 0 -47 -1 -49 -32 -53 l-33 -4 31
-1 32 -2 4 -151 c3 -151 3 -151 31 -175 50 -43 115 -25 136 38 8 27 8 29 -2
14 -35 -55 -64 -68 -91 -40 -13 13 -16 42 -16 164 l0 149 53 4 52 3 -52 2 -52
2 -3 53 c-3 50 -4 52 -30 49z"/>
<path d="M10103 5573 c-20 -4 -23 -11 -23 -53 l0 -49 -37 -4 -38 -4 37 -1 37
-2 3 -151 3 -151 28 -24 c15 -13 39 -24 53 -24 30 0 84 50 83 77 0 15 -2 14
-9 -4 -14 -35 -54 -57 -79 -43 -20 10 -21 19 -21 165 l0 154 53 4 52 3 -52 2
-53 2 0 55 c0 30 -3 54 -7 54 -5 -1 -18 -4 -30 -6z"/>
<path d="M6335 5470 c3 -6 13 -10 20 -10 35 0 49 -105 18 -132 -10 -8 -40 -23
-68 -33 -92 -34 -129 -97 -89 -153 23 -33 101 -31 142 3 l29 24 11 -24 c9 -19
19 -25 44 -25 18 0 40 5 48 10 12 8 9 10 -10 8 l-25 -3 -5 143 c-6 135 -7 144
-30 166 -25 23 -97 45 -85 26z m55 -219 c0 -63 -2 -71 -26 -90 -37 -29 -79
-27 -100 4 -18 28 -12 76 13 97 16 13 92 54 106 57 4 0 7 -30 7 -68z"/>
<path d="M6899 5471 c-78 -24 -113 -80 -114 -181 0 -111 54 -175 150 -175 56
0 92 22 117 70 6 12 -3 7 -22 -12 -26 -27 -40 -33 -75 -33 -69 0 -115 63 -115
158 l0 32 111 0 111 0 -7 33 c-10 45 -32 85 -53 96 -28 14 -75 20 -103 12z
m58 -16 c20 -14 43 -69 43 -102 0 -9 -22 -13 -79 -13 l-79 0 7 33 c11 48 29
77 54 87 30 12 30 12 54 -5z"/>
<path d="M7655 5470 c-75 -17 -115 -78 -115 -176 0 -118 64 -190 162 -181 97
8 144 78 135 200 -8 117 -82 180 -182 157z m86 -27 c34 -29 51 -168 29 -242
-13 -47 -48 -81 -81 -81 -34 0 -76 47 -85 96 -11 58 1 180 20 209 29 45 78 52
117 18z"/>
<path d="M8623 5464 c31 -17 47 -50 47 -95 l0 -29 -75 0 c-41 0 -75 3 -75 8 0
30 25 85 47 102 23 18 24 20 6 20 -57 0 -112 -89 -113 -180 0 -157 140 -235
248 -137 12 11 22 26 22 33 0 7 -13 -1 -29 -17 -22 -22 -39 -29 -68 -29 -71 0
-113 54 -113 145 l0 45 105 0 c104 0 105 0 105 24 0 66 -34 107 -100 119 l-35
6 28 -15z"/>
<path d="M9500 5469 c-92 -37 -130 -175 -77 -279 41 -83 155 -104 219 -40 15
16 28 34 28 40 0 7 -13 -2 -29 -19 -23 -24 -37 -31 -68 -31 -71 0 -113 54
-113 145 l0 45 105 0 105 0 0 26 c0 88 -87 146 -170 113z m80 -17 c15 -12 24
-33 27 -65 l6 -47 -77 0 c-83 0 -86 3 -65 57 14 37 48 73 70 73 9 0 27 -8 39
-18z"/>
<path d="M9795 5464 c-37 -19 -45 -31 -45 -69 0 -42 21 -68 91 -116 33 -22 65
-51 71 -64 31 -67 -45 -119 -111 -76 -7 5 -22 33 -32 62 l-18 54 -1 -70 c0
-45 4 -65 9 -56 8 12 14 12 44 -2 43 -21 67 -21 112 -3 39 17 55 42 55 88 0
41 -19 63 -100 118 -33 22 -65 50 -71 61 -16 31 3 66 43 78 29 8 30 9 8 10
-14 0 -38 -6 -55 -15z"/>
<path d="M9947 5466 c-4 -10 -13 -16 -20 -13 -46 19 -52 19 -28 2 13 -10 30
-34 39 -54 16 -36 16 -36 20 -9 2 15 2 42 0 60 -2 26 -5 29 -11 14z"/>
<path d="M4408 5463 c43 -6 64 -39 60 -94 l-3 -43 -74 -31 c-83 -35 -111 -62
-111 -110 0 -78 96 -100 163 -37 21 20 27 22 27 10 0 -42 58 -62 96 -33 18 13
18 14 -5 8 -14 -4 -26 -1 -32 8 -5 8 -9 73 -9 145 0 162 -7 176 -91 179 -30 1
-39 0 -21 -2z m45 -295 c-61 -69 -147 -21 -113 63 9 21 30 39 69 59 l56 28 3
-65 c2 -52 -1 -70 -15 -85z"/>
<path d="M4655 5445 c-27 -26 -33 -72 -15 -105 6 -11 32 -34 58 -51 26 -18 59
-43 75 -57 51 -48 26 -112 -45 -112 -42 0 -63 21 -82 81 l-14 44 -1 -70 c0
-52 2 -66 10 -52 9 16 12 16 32 2 44 -31 155 -11 171 30 9 25 7 74 -4 95 -6
10 -44 42 -85 70 -41 29 -77 61 -80 71 -10 32 20 69 56 69 44 0 65 -15 83 -60
9 -22 18 -40 21 -40 3 0 5 26 5 57 0 50 -2 55 -14 38 -12 -17 -14 -17 -37 -2
-37 26 -105 22 -134 -8z"/>
<path d="M4958 5440 c-53 -53 -28 -103 95 -187 43 -30 47 -36 47 -72 0 -45
-18 -61 -69 -61 -39 0 -68 28 -77 75 -11 61 -24 49 -24 -22 1 -51 3 -64 11
-51 9 16 13 17 39 3 16 -8 50 -15 75 -15 38 0 52 5 76 29 58 58 33 110 -96
201 -37 26 -51 43 -53 64 -4 36 7 47 55 56 l38 8 -43 1 c-36 1 -49 -4 -74 -29z"/>
<path d="M5130 5455 c0 -18 -5 -19 -33 -4 -21 11 -21 11 -5 -7 9 -11 24 -35
32 -54 l15 -35 1 58 c0 31 -2 57 -5 57 -3 0 -5 -7 -5 -15z"/>
<path d="M5265 5460 c-40 -4 -46 -7 -28 -13 29 -11 35 -44 31 -187 -3 -111 -4
-115 -28 -127 -22 -11 -16 -13 55 -12 57 0 74 3 58 9 -29 12 -33 30 -36 195
l-2 140 -50 -5z"/>
<path d="M5499 5447 c-48 -32 -69 -79 -69 -155 0 -72 16 -116 55 -152 23 -22
36 -25 95 -25 62 0 72 3 99 29 77 74 65 254 -21 306 -46 28 -115 27 -159 -3z
m129 -10 c56 -60 57 -242 1 -298 -29 -29 -86 -22 -112 13 -22 30 -34 137 -23
211 13 86 86 126 134 74z"/>
<path d="M5835 5459 c-27 -3 -42 -7 -33 -7 32 -3 39 -38 36 -174 -3 -130 -3
-133 -28 -145 -22 -11 -16 -13 55 -12 54 0 73 3 59 9 -13 5 -24 21 -28 40 -9
46 -7 148 3 193 5 20 5 37 1 37 -5 0 -10 15 -12 33 l-3 32 -50 -6z"/>
<path d="M5942 5443 c-15 -16 -18 -20 -7 -10 29 24 91 23 105 -2 11 -22 14
-270 2 -287 -4 -6 -14 -14 -22 -17 -8 -3 21 -5 65 -5 47 0 70 3 55 7 -25 7
-25 8 -30 150 -6 141 -6 144 -34 167 -39 34 -97 33 -134 -3z"/>
<path d="M6288 5463 c7 -3 16 -2 19 1 4 3 -2 6 -13 5 -11 0 -14 -3 -6 -6z"/>
<path d="M4314 5435 c-27 -28 -28 -52 -3 -68 37 -23 69 29 37 61 -10 10 -10
15 2 22 11 7 11 10 2 10 -7 0 -24 -11 -38 -25z"/>
<path d="M6231 5434 c-12 -15 -21 -30 -21 -35 0 -10 29 -39 40 -39 5 0 16 7
24 16 20 19 20 29 0 48 -8 9 -12 20 -9 26 14 22 -15 8 -34 -16z"/>
</g>
</svg>
